<?xml version="1.0" encoding="utf-8"?>
<!-- Generator: Adobe Illustrator 27.2.0, SVG Export Plug-In . SVG Version: 6.00 Build 0)  -->
<svg version="1.1" id="Layer_1" xmlns="http://www.w3.org/2000/svg" xmlns:xlink="http://www.w3.org/1999/xlink" x="0px" y="0px"
	 viewBox="0 0 316.8 193.9" style="enable-background:new 0 0 316.8 193.9;" xml:space="preserve">
<style type="text/css">
	.st0{fill:#002C60;}
	.st1{opacity:0.6;fill:#005AAA;}
	.st2{fill:#4A0004;}
	.st3{fill:#7C0E1D;}
	.st4{fill:#912131;}
	.st5{fill:#B62436;}
	.st6{fill:#F6EEE7;}
	.st7{opacity:0.9;fill:#E1DAD3;}
	.st8{opacity:0.5;fill:#E1DAD3;}
	.st9{opacity:0.5;fill:#C9C4BE;}
	.st10{opacity:0.5;fill:#F6EEE7;}
	.st11{opacity:0.8;fill:#E1DAD3;}
	.st12{fill:#E1DAD3;}
	.st13{fill:#005AAA;}
</style>
<g>
	<path class="st0" d="M101.3,61.6c0,0-6.1-3.5-7.8-3.3c-1.3,0.2-9.9,2.1-10.1,15.1l15.4,4.8c0,0-0.3-8.8,6.3-11.1L101.3,61.6z"/>
	<path class="st1" d="M101.6,69.2c-1.8-0.6-3.6-1.2-5.3-1.8c-3.4-1.3-6.6-2.8-9.8-4.5c-1.7,2.2-3.1,5.5-3.1,10.4l15.4,4.8
		C98.7,78.1,98.5,72.7,101.6,69.2z"/>
	<g>
		<g>
			<path class="st2" d="M187.1,63.8l9,103.5l2.5,2.1L307.4,107c0,0,5.3-2.7,3-8.2l-88.2-80.4L187.1,63.8z"/>
			<path class="st3" d="M187.8,62.1l7.8,103.5l1.6,1.7l110.1-62.5c0,0,5-2.8,2.8-6.7l-87.2-81.5L187.8,62.1z"/>
			<path class="st3" d="M310.1,98.1l-2-1.9c0.4,1.5,0.7,3.1,0.2,4.6c-0.7,2.3-2.7,3.4-4.7,4.4c-2.5,1.1-106.4,62.1-106.4,62.1
				l110.1-62.5C307.3,104.8,312.4,102,310.1,98.1z"/>
			<path class="st4" d="M131.7,86.4l66.8,83L83.1,186.1c0,0-3.6,0.3-5.4-2.9L8.3,81.6c0,0-2.8-3,2.6-4L131.7,86.4z"/>
			<path class="st3" d="M86.9,181.8c-0.7,0.4-4,0.2-4.7-0.4c-2-1.6-3.1-3.9-4.7-5.8c-7.3-8.2-14-16.8-20.9-25.4L78.2,182
				c2.6,2.7,5,2.1,5,2.1l114-16.7L86.9,181.8z"/>
			<path class="st5" d="M83.3,180.5c4.3-1,29.3-6.3,113.2-13.9l-64.4-81.4L11.4,76.4c-1.4,0.3-2.2,0.6-2.7,1.1
				c1.7,2.6,36.2,53.4,42.6,62.4c6.1,8.5,12.4,16.9,18.6,25.3c3.8,5.2,7.6,10.5,11,15.9C81.8,180.9,82.5,180.6,83.3,180.5z"/>
		</g>
		<path class="st6" d="M195.9,165.9c0,0-71.6,5-115.8,14.3L10.1,77l13.9-0.5L195.9,165.9z"/>
		<path class="st7" d="M195.9,165.9c0,0-71.6,5-115.8,14.3L10.1,77l13.9-0.5L195.9,165.9z"/>
		<path class="st6" d="M195.9,165.9c0,0-86.3-0.9-115,13.2L10.9,76.5l13.1,0L195.9,165.9z"/>
		<path class="st8" d="M195.9,165.9c0,0-78.4-8-113.7,11L13.5,76.5l10.6,0L195.9,165.9z"/>
		<g>
			<path class="st6" d="M298.7,92.3l8,7.9c0,0-54.7,27.6-110.9,65.7c-31.3-1.9-65.7-7.8-113.6,7.9C37.4,113.3,13.4,73.6,13.4,73.6
				l12.9-6.8l65.4,84.3c0,0,35-26.9,93.8-5.1C203.9,96.8,249.8,77.7,298.7,92.3z"/>
			<path class="st8" d="M213.2,153.2c4.3-3.1,8.7-6.2,13.2-9.2c8.9-6,18-11.7,27.1-17.2c4.6-2.8,9.2-5.5,13.8-8.2
				c4.6-2.6,9.1-5.4,13.8-7.8c8.1-4.2,16.8-7.1,25-11.2l-7.4-7.3c-48.9-14.6-94.9,4.5-113.2,53.8c-58.8-21.8-93.8,5.1-93.8,5.1
				L26.3,66.8l-12.9,6.8c0,0,24,39.7,68.9,100.2c47.9-15.8,82.3-9.8,113.6-7.9c2-1.4,4.1-2.8,6.1-4.1
				C205.5,158.7,209.4,155.9,213.2,153.2z"/>
			<path class="st6" d="M299.2,89.4l7.7,8.2c0,0-58,23.5-111,68.3c-31.3-1.9-65.7-7.8-113.6,7.9C37.4,113.3,13.4,73.6,13.4,73.6
				l12.9-6.8l65.4,84.3c0,0,35-26.9,93.8-5.1C203.9,96.8,250.3,74.8,299.2,89.4z"/>
			<path class="st8" d="M299.2,89.4l7.7,8.2c0,0-51.4,15.3-111,68.3c-31.3-1.9-65.7-7.8-113.6,7.9C37.4,113.3,13.4,73.6,13.4,73.6
				l12.9-6.8l65.4,84.3c0,0,35-26.9,93.8-5.1C203.9,96.8,250.3,74.8,299.2,89.4z"/>
			<path class="st6" d="M299.2,89.4l5.9,7.4c0,0-54.8,17.2-109.3,69.1c-31.3-1.9-65.7-7.8-113.6,7.9C37.4,113.3,13.4,73.6,13.4,73.6
				l12.9-6.8l65.4,84.3c0,0,35-26.9,93.8-5.1C203.9,96.8,250.3,74.8,299.2,89.4z"/>
			<path class="st8" d="M298.7,90.6l5.8,4.4c0,0-52.8,11.8-108.6,70.9c-25.4-5.1-78.9-7.5-110.5,4.3c-44-57.3-69.5-98.8-69.5-98.8
				l10.4-4.6l65.4,84.3c0,0,35-26.9,93.8-5.1C203.9,96.8,249.8,76,298.7,90.6z"/>
			<path class="st8" d="M298.7,90.6C249.8,76,203.9,96.8,185.5,146c-58.8-21.8-93.8,5.1-93.8,5.1L26.3,66.8l-7.4,3.3
				C21.5,74,23.9,78,26.4,82c2.8,4.6,58.7,82.6,60.9,85.4c40.9-12.6,84.1-6.5,108.6-1.5c0.1-0.1,0.3-0.3,0.4-0.4
				c1.8-2.6,3.9-4.9,6.1-7.2c3.2-3.3,6.7-6.3,10-9.6c3.8-3.8,7.7-7.5,11.6-11.1c7.6-6.9,15.7-13.1,24.4-18.6
				c8.7-5.5,17.8-10.3,27.1-14.4c4.8-2.1,9.7-4.1,14.7-5.7c4.5-1.5,8.7-3.7,13.4-4.5L298.7,90.6z"/>
			<path class="st6" d="M300.7,89.1l4.6,4.2c0,0-58,9.2-109.4,72.6c-38.7-12.2-77.8-9.1-108.8,0.1c-37.8-49.1-68.9-98.5-68.9-98.5
				s6.3-4.5,14.2-5.4l58.2,85.4c0,0,52.3-18,101.5,8.7C210.7,111.1,254,85.5,300.7,89.1z"/>
			<path class="st9" d="M300.7,89.1c-46.6-3.6-90,22-108.6,67c-49.2-26.7-101.5-8.7-101.5-8.7L32.4,62.1c-4.6,0.5-8.6,2.2-11.2,3.6
				c2.8,4.3,65.5,95.7,66,96.4c4.6-1.4,10.8-4,15.5-4.8c5.3-0.9,31.4-8.6,79.6,3.4c4.5,1.1,9.1,2.3,13.5,3.9
				c0.3,0.1,0.6,0.2,0.9,0.3c0.8-0.9,1.5-1.9,2.3-2.8c2.4-3.9,5.3-7.6,8.1-11.3c3-3.9,6.1-7.8,9.4-11.5c3.5-3.8,7.2-7.4,11-10.8
				c7.3-6.4,15.5-11.7,24-16.3c8.5-4.6,17.4-8.7,26.4-12.4c8.3-3.4,17-6.5,25.9-7.9L300.7,89.1z"/>
			<g>
				<path class="st6" d="M21.3,62.1c27.4,42,67,97.2,67,97.2s57.5-20.6,107.6,6.6l-64.6-81.6C104.1,63.1,56.9,48.3,21.3,62.1z"/>
				<path class="st8" d="M110.9,72.2c2.2,1.1,4.4,2.2,6.4,3.7c1.9,1.4,3.8,3,5.5,4.7c7.4,6.9,13.6,14.9,19.9,22.8
					c6.8,8.6,13.8,17.2,20.6,25.9c3.4,4.3,6.6,8.7,10,13c3.3,4.1,6.5,8.4,9.9,12.4c2.5,3,5.2,5.9,7.7,8.8c1.6,0.8,3.3,1.6,4.9,2.5
					l-64.6-81.6c-8.9-7-20-13.2-32.2-18C102.8,68.7,106.9,70.3,110.9,72.2z"/>
				<path class="st10" d="M175,154.8c-3.9-1.8-7.9-3.3-12-4.6c-3.9-1.2-7.9-2.3-12-3c-10.9-1.9-22-1-33-1.1c-2.7,0-5.5-0.1-8.2-0.3
					c-1.8-0.2-3.6-0.4-5.3-1.1c-3.1-1.2-5.8-3.2-8.1-5.6c-5-5.2-49.6-71-49.4-72.8c0.2-1.8,3.3-4.4,4.8-5.3
					c3.4-2.1,7.8-2.5,11.7-2.6c3.7-0.1,7.4,0.1,11.1,0.5c-18.2-3.6-36.9-3.3-53.3,3c27.4,42,67,97.2,67,97.2s50.7-18.1,98.3,2.1
					C183,158.8,179,156.6,175,154.8z"/>
				<path class="st6" d="M306.3,90.6C253.9,39,216.7,5.4,216.7,5.4s-47.2,12.9-85.4,78.9l64.6,81.6
					C208.9,139.1,244.1,103.3,306.3,90.6z"/>
				<path class="st8" d="M291.8,88.5c-5,1.5-9.8,3.5-14.7,5.4c-4.7,1.8-9.4,3.8-14,6c-9,4.3-17.5,9.4-25.8,15
					c-7.4,5-15.1,11.5-24.6,10.3c-4.5-0.6-8.6-2.8-12.2-5.4c-3.8-2.7-7.4-5.6-10.8-8.7c-7.2-6.6-13.6-14.1-19.5-22
					c-2.9-3.9-5.6-7.8-8.1-11.9c-2.4-3.8-4.9-7.6-6.2-11.9c-1.3-4.4-1.2-9,0.2-13.3c0.6-1.8,1.3-3.5,2.2-5.1
					c-9,10-18.3,22.4-27.1,37.5l64.6,81.6c13-26.8,48.3-62.6,110.5-75.3c-1.5-1.4-2.9-2.8-4.3-4.3C298.6,86.8,295.2,87.5,291.8,88.5
					z"/>
				<path class="st11" d="M214.7,138.1c-3.1,2.7-6,5.6-8.4,8.9c-1.9,2.7-4,5.9-7.2,7.3c-3.2,1.5-6.3-1.3-8.4-3.5
					c-1.2-1.3-2.3-2.7-3.4-4c-1.8-2.1-3.6-4.2-5.4-6.3c-6.9-8.2-14.1-16.1-20.7-24.5c-3.2-4.1-6.3-8.3-9.3-12.6
					c-2.5-3.5-5.2-6.9-7.6-10.5c-2.2-3.4-3.9-7.2-4.3-11.2c-0.3-3.7,0.3-7.5,1.1-11c0.3-1.1,0.6-2.3,0.9-3.4
					c-3.7,5.3-7.3,10.9-10.9,17.1l64.6,81.6c4.8-9.8,12.5-20.9,23.5-31.5C217.8,135.6,216.2,136.8,214.7,138.1z"/>
			</g>
		</g>
	</g>
	<g>
		<path class="st12" d="M119.9,104.3c-3-9.2-3.4-16.3-3.7-21.7c-1.5-1-3-2-4.5-2.9c-4.1-2.5-4.9-12.9-12.3-13.2
			c0.5,1.6,1,9.2,1.2,11.4c1.2,13.4,10.3,45.8,23.2,53.4l1.5-8.3c0,0,4.9,4.6,12.2,5.8C137.5,128.7,126.6,125.5,119.9,104.3z"/>
		<path class="st13" d="M93.7,58.2c0,0,8,2.3,9.2,15.7c1.2,13.4,10.3,45.8,23.2,53.4l1.4-9.8c0,0,5.1,6.1,12.4,7.3
			c0,0-10.9-3.2-17.6-24.4c-6.8-21.2-0.5-30.9-8.7-36C105.4,59.3,93.7,58.2,93.7,58.2z"/>
		<path class="st1" d="M105.9,61.2c3.3,2,6.8,4.5,7.7,8.6c0.5,2.5,0.6,5.1,0.8,7.7c0.2,2.6,0.4,5.3,0.9,7.9c0.5,2.6,1.1,5.2,1.7,7.8
			c0.3,1.2,0.7,2.5,1,3.7c0.4,1.2,0.8,2.3,1,3.5c0,0.2-0.2,0.3-0.3,0.1c-0.7-1-1.2-2-2-2.9c1.1,3,2.4,5.9,3.8,8.8
			c-0.3-1.2-0.5-2.5-0.6-3.8c0-0.2,0.3-0.2,0.3,0c1.5,4.2,4.1,8,7,11.3c1.1,1.2,2.2,2.4,3.4,3.5c-2.9-3.7-5.9-9.1-8.5-16.9
			c-6.8-21.2-0.5-30.9-8.7-36c-2.8-1.7-6-3-9-3.9C105,60.7,105.5,60.9,105.9,61.2z"/>
		<path class="st13" d="M125.4,125.1c0,0.1-5.4-5.7-7.5-9c-1.7-2.7-3.1-5.4-4.3-8.3c-4.2-8.6-6.2-18.3-7.7-27.7
			c-0.7-4.2-1.4-8.4-2.9-12.3c-0.7-1.8-1.6-3.6-2.6-5.2c-1.8-1.8-3.9-3.2-6.2-4.3c-0.3,0-0.5-0.1-0.5-0.1s8,2.3,9.2,15.7
			c1.2,13.4,10.3,45.8,23.2,53.4l0.9-6.8C126.8,119.5,125.6,122.5,125.4,125.1z"/>
	</g>
</g>
</svg>
